<svg width="48" height="48" viewBox="0 0 48 48" fill="none" xmlns="http://www.w3.org/2000/svg">
<path d="M0.513335 23.4519C0.714431 21.8529 2.4544 19.8726 4.13796 19.8726H19.8749V4.13075C19.8749 2.11489 22.2476 0.448492 24.1458 0.501218C25.9336 0.551492 28.1334 2.24854 28.1334 4.13075V19.8714H43.8703C45.8752 19.8714 47.5612 22.2429 47.4986 24.1435C47.4398 25.9349 45.7574 28.1323 43.8703 28.1323H28.1334V43.8729C28.1334 45.5565 26.153 47.2965 24.5553 47.4988H23.4542C22.163 47.2229 20.916 46.4823 20.3188 45.2659C20.1987 45.0206 19.8762 44.0961 19.8762 43.8729V28.1323H4.13796C3.8682 28.1323 2.97553 27.7902 2.69596 27.6479C1.48693 27.0299 0.78555 25.854 0.513335 24.553C0.54399 24.2011 0.470418 23.7928 0.513335 23.4519Z" fill="#0047AB"/>
</svg>
