<svg width="50" height="52" viewBox="0 0 50 52" fill="none" xmlns="http://www.w3.org/2000/svg">
<g clip-path="url(#clip0_237_577)">
<path d="M32.7132 27.1098C33.938 27.5765 36.5316 28.4833 37.3844 29.4389C38.3357 30.5037 38.1813 32.2066 36.9992 33.0174C35.3186 34.1708 33.7336 32.5684 32.203 31.8802C20.3948 26.5678 6.47517 34.1516 4.88427 47.0804C4.75341 48.1452 4.90044 49.5985 4.55933 50.5127C3.71242 52.7797 0.332133 52.3529 0.0380676 49.9278C-0.08544 48.9103 0.114525 47.2428 0.261558 46.1972C1.44958 37.7818 7.35001 30.2837 15.2133 27.2206C9.46729 22.9701 7.27209 15.4423 10.2422 8.79631C13.4019 1.72494 21.624 -1.79007 28.9183 0.906736C39.2782 4.7378 42.0277 18.0136 34.0924 25.785C33.7571 26.1144 33.1058 26.5043 32.8205 26.8292C32.7367 26.9252 32.6779 26.9518 32.7132 27.1069V27.1098ZM23.7751 4.69793C16.4866 4.73337 11.589 12.2493 14.4252 19.0031C17.6011 26.5648 28.0596 27.3919 32.4294 20.4667C36.7419 13.6331 31.806 4.65805 23.7751 4.69645V4.69793Z" fill="#0047AB"/>
<path d="M37.6581 46.2298L45.7552 33.9627C47.5196 31.8227 50.8632 33.7323 49.7942 36.3612C46.533 40.8775 43.7585 46.1826 40.3974 50.5807C39.496 51.7608 38.6815 52.2378 37.1523 51.6707C34.9557 49.8999 31.7724 48.485 29.6904 46.6744C27.6084 44.8637 29.6581 41.4077 32.4179 42.8285C33.0913 43.1756 37.4008 46.407 37.6581 46.2283V46.2298Z" fill="#0047AB"/>
</g>
<defs>
<clipPath id="clip0_237_577">
<rect width="50" height="52" fill="white"/>
</clipPath>
</defs>
</svg>
