<svg width="52" height="52" viewBox="0 0 52 52" fill="none" xmlns="http://www.w3.org/2000/svg">
<g clip-path="url(#clip0_237_569)">
<path d="M47.0868 19.9908H37.7239L37.984 23.6653C38.014 26.0851 35.0254 26.8024 34.038 24.604L33.7312 20.302L33.526 20.0091L18.3675 20.0457L17.9956 23.7852C17.9922 26.5128 17.9655 29.2504 18.3758 31.9498H26.553C27.3185 31.9498 28.0607 33.3877 27.994 34.1299C27.9273 34.8722 26.9566 35.9356 26.1777 35.9356H18.9996C19.7017 39.294 21.0126 44.3199 23.6177 46.713C25.4089 48.3573 26.2645 47.5069 28.2892 47.7815C30.4406 48.0727 30.589 51.1415 28.3959 51.7273C24.9636 52.6426 18.8978 51.0932 15.6707 49.6604C-3.15367 41.3077 -5.5853 15.9401 11.4678 4.44202C27.4169 -6.31212 49.7102 3.50674 51.815 22.6851C51.9701 24.1014 52.1903 27.5247 51.6933 28.7628C51.0895 30.2689 48.7729 30.264 48.0575 28.8011C47.6605 27.9906 47.9691 27.5297 47.9657 26.7874C47.9541 24.4675 47.5922 22.2424 47.0851 19.9924L47.0868 19.9908ZM32.979 16.0033C32.8889 15.1512 32.6654 14.3091 32.4436 13.4854C31.4146 9.64602 27.7288 -0.0779786 22.8688 5.97809C20.7307 8.6425 19.635 12.7048 18.9962 16.0033H32.979ZM14.8785 16.0033C15.3588 13.1209 16.1593 10.2385 17.3535 7.57241C17.7004 6.79689 18.1607 6.06796 18.4976 5.28911C14.3848 6.84848 10.7424 9.53618 8.16062 13.0976C7.53853 13.9547 6.81304 15.0081 6.51451 16.0016H14.8785V16.0033ZM45.339 16.0033C45.0021 15.1529 44.4634 14.3458 43.943 13.5969C41.4247 9.9772 37.8156 7.09145 33.6678 5.53708L34.9136 8.28136C35.8726 10.7827 36.6314 13.3605 37.1001 16.0033H45.339ZM14.2531 19.9908H4.76667C3.85272 23.915 3.60922 28.1521 5.07854 31.9498H14.2547C13.9378 27.9673 13.9095 23.9732 14.2547 19.9908H14.2531ZM14.8785 35.9356H6.63959C9.06623 40.6486 13.3391 44.4164 18.3108 46.277C18.0473 45.4449 17.5353 44.706 17.1917 43.9055C16.1043 41.3609 15.3755 38.6582 14.8785 35.9373V35.9356Z" fill="#0047AB"/>
<path d="M36.9484 27.9987C45.3874 27.1782 50.8244 36.373 46.3564 43.4525L51.5616 48.7231C52.8208 50.6952 50.6143 52.7572 48.718 51.4358L43.5112 46.2934C35.841 51.0813 26.1528 44.4477 28.2743 35.5359C29.2282 31.5251 32.8407 28.3981 36.9501 27.9987H36.9484ZM37.1969 31.9845C28.908 32.9813 31.3563 46.0487 39.6619 43.6639C46.6299 41.6635 44.5102 31.1057 37.1969 31.9845Z" fill="#0047AB"/>
</g>
<defs>
<clipPath id="clip0_237_569">
<rect width="52" height="52" fill="white"/>
</clipPath>
</defs>
</svg>
