<svg width="29" height="27" viewBox="0 0 29 27" fill="none" xmlns="http://www.w3.org/2000/svg">
<g clip-path="url(#clip0_237_554)">
<path d="M28.6894 12.3077H19.4564C18.8243 12.3077 18.0568 13.1524 17.8583 13.8038C17.6598 14.4552 17.6888 17.2335 17.7445 18.037C17.8093 18.9672 18.5676 20.1771 19.4564 20.1771H28.6894V24.0066C28.6894 25.3076 27.1453 26.9126 25.9841 26.9211L3.66156 26.9257C2.13242 26.8047 0.940498 25.4634 0.83252 23.7288L0.836673 8.62076C0.985351 7.21377 1.85583 6.02736 3.07349 5.66786C8.90186 3.94831 14.746 2.22782 20.576 0.505449C21.3626 0.450071 22.2015 0.785158 22.7829 1.38118C23.8187 2.44276 23.8104 4.13885 24.2706 5.53176C25.4907 5.59841 26.5522 5.37501 27.5706 6.29956C28.0241 6.71161 28.6886 7.81637 28.6886 8.47809V12.3077H28.6894ZM22.1608 5.56274C21.9258 4.64571 21.9067 2.75063 20.7621 2.74688L11.5291 5.56274H22.1608Z" fill="#0047AB"/>
<path d="M28.6894 14.5569H19.7363V17.9294H28.6894V14.5569Z" fill="#0047AB"/>
</g>
<defs>
<clipPath id="clip0_237_554">
<rect width="27.8569" height="26.425" fill="white" transform="translate(0.83252 0.5)"/>
</clipPath>
</defs>
</svg>
