<?xml version="1.0" encoding="UTF-8"?>
<svg xmlns="http://www.w3.org/2000/svg" version="1.1" viewBox="0 0 991.06 1080">
  <defs>
    <style>
      .cls-1 {
        display: none;
        fill: #fff;
      }
    </style>
  </defs>
  <!-- Generator: Adobe Illustrator 28.7.4, SVG Export Plug-In . SVG Version: 1.2.0 Build 166)  -->
  <g>
    <g id="Layer_1">
      <g>
        <path class="cls-1" d="M-42.35,1064V12.71H1008.94v1051.29H-42.35ZM91.16,792.08c-8.09-31.04-12.06-60.86-12.22-90.93-.55-104.37-.5-208.75-.39-313.12.04-35.34,3.95-70.3,12.69-104.63,17.8-69.86,60.5-115.69,130.45-135.31,38.17-10.71,77.21-14.61,116.69-14.73,60.92-.19,121.85-.04,182.77-.31,6.36-.03,13.15-.83,18.98-3.15,14.78-5.9,22.38-21.48,19.13-36.9-3.11-14.76-16.39-25.43-33-25.44-68.45,0-136.91-.28-205.36.62-40.81.54-81.07,6.48-120.34,18.18C118.36,110.84,62.37,162.61,34.94,244.52c-14.03,41.89-21.21,85.1-21.56,128.98-.88,109.84-.78,219.7-.03,329.54.27,40.09,6.58,79.68,18.12,118.26,21.8,72.89,65.43,126.81,136.37,157.01,47.26,20.11,97.16,29.14,147.95,29.72,111.9,1.27,223.84.86,335.75.11,36.98-.25,73.55-6.27,109.3-16.27,88.26-24.68,146.82-80.13,173.82-168.08,12.12-39.48,18.38-80.1,18.86-121.25.97-83.14.6-166.29.78-249.43,0-1.71-.05-3.42-.18-5.13-1.09-13.69-10.76-25.37-23.89-28.91-21.65-5.83-41.27,9.95-41.55,33.99-.32,28.06-.06,56.12-.11,84.18,0,3.43-.32,6.86-.56,11.68-4.85-4.03-8.03-6.62-11.16-9.27-54.65-46.3-122.9-46.16-177.34.47-57.7,49.42-115.21,99.05-173.14,148.2-7.12,6.04-15.72,11.4-24.54,14.15-26.3,8.19-48.31-.2-68.54-18.4-47.66-42.87-111.36-46.73-164.52-11.16-28.71,19.21-57.34,38.53-86.03,57.78-30.06,20.17-60.15,40.32-91.57,61.38ZM351.63,483.29c66.76.18,121.11-53.96,120.95-120.48-.16-66.13-54.19-120.15-120.29-120.27-66.57-.12-121.07,54.24-120.96,120.64.11,66.13,54,119.93,120.3,120.11ZM779.2,178.88c11.35,11.58,20.42,21.12,29.81,30.34,14.37,14.1,34.53,14.86,47.75,2.07,13.58-13.15,13.22-33.72-1.31-48.45-28.09-28.5-56.33-56.85-84.65-85.12-14.35-14.33-35.23-13.97-49.42.41-17.78,18.01-35.59,35.99-53.42,53.95-10.84,10.93-21.93,21.61-32.55,32.75-10.1,10.59-12.13,25.48-5.83,37.99,6.26,12.43,19.69,19.96,34.21,16.83,7.21-1.55,14.39-6.1,20.12-10.99,9.89-8.43,18.64-18.2,29.56-29.08v14.06c0,55.06-.19,110.13.23,165.19.05,7.2,1.81,15.14,5.22,21.4,6.97,12.8,22.5,18.16,36.3,14.28,14.35-4.04,23.9-16.94,23.93-33.21.11-56.09.05-112.18.05-168.27,0-3.62,0-7.23,0-14.14Z"/>
        <path d="M91.16,792.08c31.42-21.06,61.51-41.2,91.57-61.38,28.68-19.25,57.32-38.57,86.03-57.78,53.17-35.57,116.86-31.71,164.52,11.16,20.23,18.19,42.23,26.59,68.54,18.4,8.83-2.75,17.43-8.11,24.54-14.15,57.92-49.15,115.44-98.79,173.14-148.2,54.44-46.63,122.69-46.77,177.34-.47,3.13,2.65,6.31,5.24,11.16,9.27.24-4.82.56-8.25.56-11.68.04-28.06-.22-56.13.11-84.18.28-24.04,19.9-39.83,41.55-33.99,13.14,3.54,22.8,15.22,23.89,28.91.14,1.7.19,3.42.18,5.13-.17,83.14.19,166.3-.78,249.43-.48,41.15-6.74,81.77-18.86,121.25-26.99,87.95-85.56,143.4-173.82,168.08-35.75,10-72.32,16.02-109.3,16.27-111.91.75-223.85,1.16-335.75-.11-50.79-.58-100.69-9.6-147.95-29.72-70.94-30.2-114.57-84.11-136.37-157.01-11.54-38.59-17.85-78.17-18.12-118.26-.75-109.84-.84-219.7.03-329.54.35-43.88,7.54-87.09,21.56-128.98,27.42-81.91,83.41-133.68,165.61-158.17,39.27-11.7,79.53-17.65,120.34-18.18,68.44-.9,136.9-.63,205.36-.62,16.61,0,29.89,10.68,33,25.44,3.25,15.42-4.35,31-19.13,36.9-5.84,2.33-12.62,3.13-18.98,3.15-60.92.27-121.85.12-182.77.31-39.48.12-78.52,4.02-116.69,14.73-69.95,19.62-112.65,65.45-130.45,135.31-8.75,34.33-12.65,69.3-12.69,104.63-.11,104.37-.15,208.75.39,313.12.16,30.08,4.13,59.9,12.22,90.93ZM117.2,854.4c16.26,25.57,37.18,44.26,62.94,57.5,43.96,22.59,91.63,30.04,140.11,30.63,98.92,1.2,197.87,1.4,296.79.41,34.4-.35,69.16-3.05,103.05-8.85,83.36-14.28,137.06-62.04,156.79-145.87,11.41-48.46,12.15-97.62,11.43-146.92-.05-3.34-3.11-7.36-5.87-9.81-16.65-14.75-33.61-29.16-50.51-43.62-26.49-22.67-60.6-22.64-86.89-.06-58.68,50.39-117.29,100.87-176.2,151-8.52,7.25-17.99,13.82-27.95,18.89-43.77,22.32-105.21,19-150.27-23.48-26.14-24.65-56.39-25.87-86.1-5.85-24.4,16.44-48.81,32.86-73.22,49.28-37.72,25.38-75.45,50.75-114.11,76.76Z"/>
        <path d="M351.63,483.29c-66.3-.18-120.19-53.99-120.3-120.11-.11-66.4,54.39-120.76,120.96-120.64,66.1.12,120.13,54.14,120.29,120.27.16,66.53-54.19,120.67-120.95,120.48ZM352.1,417.53c30.32-.07,54.86-24.59,54.73-54.69-.14-30.02-24.96-54.64-55.02-54.57-30.03.07-54.81,24.91-54.71,54.86.1,30.18,24.66,54.46,55,54.39Z"/>
        <path d="M779.2,178.88c0,6.91,0,10.53,0,14.14,0,56.09.06,112.18-.05,168.27-.03,16.27-9.58,29.17-23.93,33.21-13.8,3.88-29.33-1.47-36.3-14.28-3.41-6.27-5.17-14.2-5.22-21.4-.42-55.06-.23-110.13-.23-165.19v-14.06c-10.92,10.89-19.67,20.65-29.56,29.08-5.74,4.89-12.92,9.44-20.12,10.99-14.52,3.13-27.95-4.4-34.21-16.83-6.3-12.51-4.27-27.4,5.83-37.99,10.62-11.14,21.71-21.82,32.55-32.75,17.83-17.96,35.64-35.94,53.42-53.95,14.19-14.38,35.07-14.74,49.42-.41,28.32,28.27,56.56,56.63,84.65,85.12,14.53,14.74,14.89,35.31,1.31,48.45-13.22,12.79-33.38,12.03-47.75-2.07-9.39-9.21-18.46-18.76-29.81-30.34Z"/>
        <path class="cls-1" d="M117.2,854.4c38.66-26,76.39-51.38,114.11-76.76,24.41-16.42,48.82-32.84,73.22-49.28,29.71-20.02,59.96-18.8,86.1,5.85,45.05,42.48,106.5,45.8,150.27,23.48,9.95-5.08,19.42-11.64,27.95-18.89,58.91-50.13,117.52-100.61,176.2-151,26.29-22.57,60.39-22.6,86.89.06,16.9,14.46,33.86,28.88,50.51,43.62,2.77,2.45,5.82,6.47,5.87,9.81.72,49.31-.03,98.47-11.43,146.92-19.73,83.83-73.43,131.59-156.79,145.87-33.88,5.8-68.65,8.5-103.05,8.85-98.92,1-197.87.8-296.79-.41-48.48-.59-96.15-8.04-140.11-30.63-25.76-13.24-46.67-31.92-62.94-57.5Z"/>
        <path class="cls-1" d="M352.1,417.53c-30.34.07-54.9-24.22-55-54.39-.1-29.95,24.67-54.8,54.71-54.86,30.06-.07,54.89,24.55,55.02,54.57.14,30.09-24.4,54.61-54.73,54.69Z"/>
      </g>
    </g>
  </g>
</svg>