<svg width="36" height="36" viewBox="0 0 36 36" fill="none" xmlns="http://www.w3.org/2000/svg">
<path d="M31.4389 15.3987C30.685 15.0798 29.959 14.7724 29.1963 14.4498V11.3213H3.3687V11.7014C3.3687 14.6835 3.36813 17.6656 3.3687 20.6477C3.36927 22.1655 4.29574 23.0874 5.82091 23.0877C9.17714 23.0883 12.5337 23.0877 15.8899 23.0877H16.3078V25.3332H15.9638C12.549 25.3332 9.13421 25.3358 5.71942 25.3324C3.0901 25.3295 1.12515 23.3683 1.12344 20.7449C1.1206 16.4997 1.12003 12.2548 1.12344 8.00967C1.12572 5.40565 3.09124 3.44098 5.69952 3.43985C12.7514 3.43672 19.803 3.43672 26.8549 3.43985C29.4638 3.44098 31.4324 5.40423 31.4372 8.00456C31.4418 10.3669 31.4381 12.729 31.4381 15.0914L31.4389 15.3987ZM29.1926 9.03877C29.1926 8.63879 29.1982 8.2769 29.1914 7.91558C29.1678 6.66729 28.2027 5.70671 26.9538 5.6851C26.7784 5.68197 26.603 5.68425 26.4276 5.68425C19.5298 5.68425 12.6317 5.68368 5.73392 5.68482C4.66502 5.68482 3.78688 6.22694 3.52221 7.17985C3.35847 7.76917 3.37751 8.40937 3.31355 9.03877H29.1926Z" fill="#3CC956"/>
<path d="M26.4033 15.8035C31.038 15.8143 34.8104 19.6058 34.7933 24.2359C34.7763 28.8705 30.9803 32.6395 26.3516 32.6176C21.7312 32.5957 17.9738 28.8188 17.9795 24.2017C17.9852 19.5688 21.7727 15.793 26.4033 15.8035ZM26.3795 18.0217C22.9669 18.0223 20.202 20.7815 20.1977 24.1904C20.1935 27.6262 22.9499 30.3965 26.3755 30.3991C29.8079 30.4016 32.5748 27.6401 32.5751 24.212C32.5754 20.781 29.813 18.0209 26.3795 18.0217Z" fill="#3CC956"/>
<path d="M8.42399 20.8422C7.87447 20.8422 7.32496 20.8478 6.77544 20.8407C6.11562 20.8322 5.62097 20.3535 5.61529 19.7306C5.60932 19.0896 6.10539 18.6023 6.78653 18.5986C7.8739 18.5926 8.961 18.5929 10.0484 18.5986C10.7292 18.602 11.2298 19.0876 11.2267 19.7252C11.2236 20.362 10.7233 20.8353 10.0373 20.8416C9.49943 20.8464 8.96157 20.8424 8.42399 20.8424V20.8422Z" fill="#3CC956"/>
<path d="M27.4945 23.1015C28.2649 23.1015 28.9869 23.0927 29.7087 23.1038C30.5314 23.1163 31.0673 23.8583 30.7845 24.594C30.6079 25.0531 30.2494 25.3073 29.7619 25.3141C28.6407 25.3295 27.5192 25.3286 26.398 25.3155C25.7609 25.3081 25.287 24.8379 25.281 24.2031C25.2685 22.8951 25.268 21.5866 25.2813 20.2786C25.2879 19.6572 25.7765 19.1827 26.3701 19.1728C26.9705 19.1625 27.4802 19.6501 27.4905 20.284C27.5055 21.2051 27.4945 22.1265 27.4945 23.1015Z" fill="#3CC956"/>
</svg>
