<svg width="36" height="36" viewBox="0 0 36 36" fill="none" xmlns="http://www.w3.org/2000/svg">
<path d="M31.4389 15.3987C30.685 15.0798 29.959 14.7724 29.1963 14.4498V11.3213H3.3687V11.7014C3.3687 14.6835 3.36813 17.6656 3.3687 20.6477C3.36927 22.1655 4.29574 23.0874 5.82091 23.0877C9.17714 23.0883 12.5337 23.0877 15.8899 23.0877H16.3078V25.3332H15.9638C12.549 25.3332 9.13421 25.3358 5.71942 25.3324C3.0901 25.3295 1.12515 23.3683 1.12344 20.7449C1.1206 16.4997 1.12003 12.2548 1.12344 8.00967C1.12572 5.40565 3.09124 3.44098 5.69952 3.43985C12.7514 3.43672 19.803 3.43672 26.8549 3.43985C29.4638 3.44098 31.4324 5.40423 31.4372 8.00456C31.4418 10.3669 31.4381 12.729 31.4381 15.0914L31.4389 15.3987ZM29.1926 9.03877C29.1926 8.63879 29.1982 8.2769 29.1914 7.91558C29.1678 6.66729 28.2027 5.70671 26.9538 5.6851C26.7784 5.68197 26.603 5.68425 26.4276 5.68425C19.5298 5.68425 12.6317 5.68368 5.73392 5.68482C4.66502 5.68482 3.78688 6.22694 3.52221 7.17985C3.35847 7.76917 3.37751 8.40937 3.31355 9.03877H29.1926Z" fill="#3CC956"/>
<path d="M26.4238 16C31.0585 16.0108 34.8309 19.8023 34.8138 24.4324C34.7968 29.067 31.0008 32.836 26.3721 32.8141C21.7517 32.7923 17.9943 29.0153 18 24.3983C18.0057 19.7653 21.7932 15.9895 26.4238 16ZM26.4 18.2183C22.9874 18.2188 20.2225 20.9781 20.2183 24.3869C20.214 27.8227 22.9704 30.5931 26.396 30.5956C29.8284 30.5982 32.5953 27.8367 32.5956 24.4085C32.5959 20.9775 29.8335 18.2174 26.4 18.2183Z" fill="#3CC956"/>
<path d="M8.42399 20.8422C7.87447 20.8422 7.32496 20.8478 6.77544 20.8407C6.11562 20.8322 5.62097 20.3535 5.61529 19.7306C5.60932 19.0896 6.10539 18.6023 6.78653 18.5986C7.8739 18.5926 8.961 18.5929 10.0484 18.5986C10.7292 18.602 11.2298 19.0876 11.2267 19.7252C11.2236 20.362 10.7233 20.8353 10.0373 20.8416C9.49943 20.8464 8.96157 20.8424 8.42399 20.8424V20.8422Z" fill="#3CC956"/>
<path d="M25.0568 27.8625L22.1318 24.8117C21.9561 24.6285 21.9561 24.3313 22.1318 24.148L22.7682 23.4842C22.9439 23.3009 23.2288 23.3009 23.4046 23.4842L25.375 25.5393L29.5954 21.1375C29.7712 20.9542 30.0561 20.9542 30.2318 21.1375L30.8682 21.8012C31.0439 21.9845 31.0439 22.2817 30.8682 22.465L25.6932 27.8625C25.5175 28.0458 25.2325 28.0458 25.0568 27.8625Z" fill="#3CC956"/>
</svg>
