<svg width="36" height="36" viewBox="0 0 36 36" fill="none" xmlns="http://www.w3.org/2000/svg">
<path d="M34.3134 16.3589C34.3438 8.09944 27.6125 1.33354 19.3435 1.31425L34.3134 16.3589ZM34.3134 16.3589C34.2829 24.628 27.5086 31.3531 19.2516 31.314M34.3134 16.3589L19.2516 31.314M19.2516 31.314C11.0079 31.275 4.30335 24.535 4.31349 16.2985M19.2516 31.314L4.31349 16.2985M4.31349 16.2985C4.32363 8.03303 11.0824 1.2955 19.3434 1.31425L4.31349 16.2985ZM19.3005 4.40398C12.7334 4.40508 7.41151 9.71519 7.4033 16.2763C7.3951 22.8857 12.6994 28.2189 19.2929 28.2238C25.897 28.2287 31.223 22.914 31.2236 16.3168C31.2241 9.71462 25.9069 4.40234 19.3005 4.40398ZM19.3005 4.40398L19.3006 4.90398L19.3005 4.40398Z" fill="#C93C3C" stroke="#C93C3C"/>
<path d="M18.6884 17.3383V16.8383C18.6884 16.3087 18.6904 15.7899 18.6924 15.2784C18.6969 14.0973 18.7013 12.9551 18.6807 11.8102L18.6807 11.8101C18.6661 10.9901 17.9287 10.2998 16.9834 10.3144L16.9833 10.3144C16.0394 10.3288 15.3421 11.0014 15.3328 11.7971L18.6884 17.3383ZM18.6884 17.3383H19.1884M18.6884 17.3383H19.1884M19.1884 17.3383C19.664 17.3383 20.1285 17.3368 20.5857 17.3352C21.5934 17.3319 22.5651 17.3287 23.5393 17.3423L23.5393 17.3423M19.1884 17.3383L23.5393 17.3423M23.5393 17.3423C24.2144 17.3516 24.7354 17.631 25.0293 18.0007C25.3175 18.3633 25.4064 18.8307 25.2029 19.3116C24.9394 19.934 24.423 20.284 23.6445 20.2939C21.4423 20.3213 19.2391 20.3198 17.0358 20.2964H17.0358M23.5393 17.3423L17.0358 20.2964M17.0358 20.2964C16.0056 20.2856 15.3407 19.6193 15.3323 18.8025L15.3323 18.8024M17.0358 20.2964L15.3323 18.8024M15.3323 18.8024C15.3077 16.4674 15.3066 14.1317 15.3328 11.7973L15.3323 18.8024Z" fill="#C93C3C" stroke="white"/>
</svg>
