<svg width="365" height="165" viewBox="0 0 365 165" fill="none" xmlns="http://www.w3.org/2000/svg">
<path d="M3.23016 37.37V28.59H3.92016V37.37H3.23016ZM3.66016 36.62C3.14682 36.62 2.70016 36.5267 2.32016 36.34C1.94016 36.1533 1.64682 35.8933 1.44016 35.56C1.23349 35.2267 1.13016 34.84 1.13016 34.4H2.01016C2.01016 34.6733 2.07349 34.9267 2.20016 35.16C2.32682 35.3867 2.51016 35.57 2.75016 35.71C2.99682 35.8433 3.30016 35.91 3.66016 35.91C3.97349 35.91 4.24016 35.86 4.46016 35.76C4.68682 35.6533 4.85682 35.51 4.97016 35.33C5.09016 35.15 5.15016 34.9467 5.15016 34.72C5.15016 34.46 5.09349 34.2467 4.98016 34.08C4.87349 33.9067 4.72349 33.7667 4.53016 33.66C4.33682 33.5533 4.11016 33.4567 3.85016 33.37C3.59682 33.2833 3.32349 33.1933 3.03016 33.1C2.45016 32.9133 2.02682 32.68 1.76016 32.4C1.50016 32.1133 1.37016 31.7467 1.37016 31.3C1.37016 30.92 1.45682 30.5867 1.63016 30.3C1.81016 30.0133 2.06349 29.79 2.39016 29.63C2.72349 29.4633 3.11682 29.38 3.57016 29.38C4.01682 29.38 4.40349 29.4633 4.73016 29.63C5.06349 29.7967 5.32349 30.0267 5.51016 30.32C5.69682 30.6067 5.79016 30.94 5.79016 31.32H4.91016C4.91016 31.1267 4.86016 30.9367 4.76016 30.75C4.66016 30.5633 4.50682 30.41 4.30016 30.29C4.10016 30.1633 3.84682 30.1 3.54016 30.1C3.28682 30.0933 3.06016 30.1367 2.86016 30.23C2.66682 30.3167 2.51349 30.4433 2.40016 30.61C2.29349 30.7767 2.24016 30.98 2.24016 31.22C2.24016 31.4467 2.28682 31.63 2.38016 31.77C2.48016 31.91 2.62016 32.03 2.80016 32.13C2.98682 32.2233 3.20349 32.31 3.45016 32.39C3.69682 32.47 3.97016 32.56 4.27016 32.66C4.61016 32.7733 4.91016 32.9133 5.17016 33.08C5.43682 33.24 5.64349 33.4467 5.79016 33.7C5.94349 33.9533 6.02016 34.2767 6.02016 34.67C6.02016 35.0033 5.93016 35.32 5.75016 35.62C5.57682 35.9133 5.31682 36.1533 4.97016 36.34C4.62349 36.5267 4.18682 36.62 3.66016 36.62ZM8.24977 36.5V30.44L6.85977 30.87V30.22L8.52977 29.5H9.09977V36.5H8.24977ZM13.1891 36.62C12.6025 36.62 12.0958 36.47 11.6691 36.17C11.2491 35.8633 10.9258 35.44 10.6991 34.9C10.4725 34.3533 10.3591 33.72 10.3591 33C10.3591 32.28 10.4725 31.65 10.6991 31.11C10.9258 30.5633 11.2491 30.14 11.6691 29.84C12.0958 29.5333 12.6025 29.38 13.1891 29.38C13.7758 29.38 14.2758 29.5333 14.6891 29.84C15.1091 30.14 15.4325 30.5633 15.6591 31.11C15.8858 31.65 15.9991 32.28 15.9991 33C15.9991 33.72 15.8858 34.3533 15.6591 34.9C15.4325 35.44 15.1091 35.8633 14.6891 36.17C14.2758 36.47 13.7758 36.62 13.1891 36.62ZM13.1891 35.88C13.5625 35.88 13.8925 35.7667 14.1791 35.54C14.4725 35.3067 14.7058 34.9767 14.8791 34.55C15.0525 34.1167 15.1391 33.6 15.1391 33C15.1391 32.3933 15.0525 31.8767 14.8791 31.45C14.7058 31.0233 14.4725 30.6967 14.1791 30.47C13.8925 30.2433 13.5625 30.13 13.1891 30.13C12.8091 30.13 12.4691 30.2433 12.1691 30.47C11.8691 30.6967 11.6358 31.0233 11.4691 31.45C11.3025 31.8767 11.2191 32.3933 11.2191 33C11.2191 33.6 11.3025 34.1167 11.4691 34.55C11.6358 34.9767 11.8691 35.3067 12.1691 35.54C12.4691 35.7667 12.8091 35.88 13.1891 35.88ZM19.8102 36.62C19.2236 36.62 18.7169 36.47 18.2902 36.17C17.8702 35.8633 17.5469 35.44 17.3202 34.9C17.0936 34.3533 16.9802 33.72 16.9802 33C16.9802 32.28 17.0936 31.65 17.3202 31.11C17.5469 30.5633 17.8702 30.14 18.2902 29.84C18.7169 29.5333 19.2236 29.38 19.8102 29.38C20.3969 29.38 20.8969 29.5333 21.3102 29.84C21.7302 30.14 22.0536 30.5633 22.2802 31.11C22.5069 31.65 22.6202 32.28 22.6202 33C22.6202 33.72 22.5069 34.3533 22.2802 34.9C22.0536 35.44 21.7302 35.8633 21.3102 36.17C20.8969 36.47 20.3969 36.62 19.8102 36.62ZM19.8102 35.88C20.1836 35.88 20.5136 35.7667 20.8002 35.54C21.0936 35.3067 21.3269 34.9767 21.5002 34.55C21.6736 34.1167 21.7602 33.6 21.7602 33C21.7602 32.3933 21.6736 31.8767 21.5002 31.45C21.3269 31.0233 21.0936 30.6967 20.8002 30.47C20.5136 30.2433 20.1836 30.13 19.8102 30.13C19.4302 30.13 19.0902 30.2433 18.7902 30.47C18.4902 30.6967 18.2569 31.0233 18.0902 31.45C17.9236 31.8767 17.8402 32.3933 17.8402 33C17.8402 33.6 17.9236 34.1167 18.0902 34.55C18.2569 34.9767 18.4902 35.3067 18.7902 35.54C19.0902 35.7667 19.4302 35.88 19.8102 35.88ZM23.8813 36.5V29.5H24.7213V32.67L27.6413 29.5H28.7013L26.1013 32.29L28.7413 36.5H27.7213L25.5013 32.94L24.7213 33.77V36.5H23.8813Z" fill="#B8C4CE"/>
<path d="M7.15594 57.37V48.59H7.84594V57.37H7.15594ZM7.58594 56.62C7.0726 56.62 6.62594 56.5267 6.24594 56.34C5.86594 56.1533 5.5726 55.8933 5.36594 55.56C5.15927 55.2267 5.05594 54.84 5.05594 54.4H5.93594C5.93594 54.6733 5.99927 54.9267 6.12594 55.16C6.2526 55.3867 6.43594 55.57 6.67594 55.71C6.9226 55.8433 7.22594 55.91 7.58594 55.91C7.89927 55.91 8.16594 55.86 8.38594 55.76C8.6126 55.6533 8.7826 55.51 8.89594 55.33C9.01594 55.15 9.07594 54.9467 9.07594 54.72C9.07594 54.46 9.01927 54.2467 8.90594 54.08C8.79927 53.9067 8.64927 53.7667 8.45594 53.66C8.2626 53.5533 8.03594 53.4567 7.77594 53.37C7.5226 53.2833 7.24927 53.1933 6.95594 53.1C6.37594 52.9133 5.9526 52.68 5.68594 52.4C5.42594 52.1133 5.29594 51.7467 5.29594 51.3C5.29594 50.92 5.3826 50.5867 5.55594 50.3C5.73594 50.0133 5.98927 49.79 6.31594 49.63C6.64927 49.4633 7.0426 49.38 7.49594 49.38C7.9426 49.38 8.32927 49.4633 8.65594 49.63C8.98927 49.7967 9.24927 50.0267 9.43594 50.32C9.6226 50.6067 9.71594 50.94 9.71594 51.32H8.83594C8.83594 51.1267 8.78594 50.9367 8.68594 50.75C8.58594 50.5633 8.4326 50.41 8.22594 50.29C8.02594 50.1633 7.7726 50.1 7.46594 50.1C7.2126 50.0933 6.98594 50.1367 6.78594 50.23C6.5926 50.3167 6.43927 50.4433 6.32594 50.61C6.21927 50.7767 6.16594 50.98 6.16594 51.22C6.16594 51.4467 6.2126 51.63 6.30594 51.77C6.40594 51.91 6.54594 52.03 6.72594 52.13C6.9126 52.2233 7.12927 52.31 7.37594 52.39C7.6226 52.47 7.89594 52.56 8.19594 52.66C8.53594 52.7733 8.83594 52.9133 9.09594 53.08C9.3626 53.24 9.56927 53.4467 9.71594 53.7C9.86927 53.9533 9.94594 54.2767 9.94594 54.67C9.94594 55.0033 9.85594 55.32 9.67594 55.62C9.5026 55.9133 9.2426 56.1533 8.89594 56.34C8.54927 56.5267 8.1126 56.62 7.58594 56.62ZM13.4555 56.62C13.0155 56.62 12.6155 56.5367 12.2555 56.37C11.9022 56.1967 11.6189 55.96 11.4055 55.66C11.1989 55.3533 11.0955 55 11.0955 54.6C11.0955 54.3133 11.1522 54.0467 11.2655 53.8C11.3789 53.5533 11.5322 53.34 11.7255 53.16C11.9189 52.9733 12.1455 52.8433 12.4055 52.77C12.0522 52.6367 11.7755 52.43 11.5755 52.15C11.3755 51.87 11.2755 51.5667 11.2755 51.24C11.2755 50.8933 11.3622 50.58 11.5355 50.3C11.7155 50.02 11.9689 49.7967 12.2955 49.63C12.6222 49.4633 13.0089 49.38 13.4555 49.38C13.9155 49.38 14.3055 49.4633 14.6255 49.63C14.9522 49.7967 15.2022 50.02 15.3755 50.3C15.5489 50.58 15.6355 50.8933 15.6355 51.24C15.6355 51.5667 15.5355 51.87 15.3355 52.15C15.1422 52.43 14.8655 52.6367 14.5055 52.77C14.7722 52.8433 15.0022 52.9733 15.1955 53.16C15.3889 53.34 15.5389 53.5533 15.6455 53.8C15.7589 54.0467 15.8155 54.3133 15.8155 54.6C15.8155 55 15.7122 55.3533 15.5055 55.66C15.2989 55.96 15.0155 56.1967 14.6555 56.37C14.3022 56.5367 13.9022 56.62 13.4555 56.62ZM13.4555 55.88C13.9622 55.88 14.3422 55.76 14.5955 55.52C14.8489 55.2733 14.9755 54.95 14.9755 54.55C14.9755 54.0967 14.8355 53.7533 14.5555 53.52C14.2822 53.2867 13.9155 53.17 13.4555 53.17C13.0022 53.17 12.6355 53.2867 12.3555 53.52C12.0755 53.7533 11.9355 54.0967 11.9355 54.55C11.9355 54.95 12.0622 55.2733 12.3155 55.52C12.5689 55.76 12.9489 55.88 13.4555 55.88ZM13.4555 52.47C13.8622 52.47 14.1855 52.36 14.4255 52.14C14.6655 51.92 14.7855 51.6367 14.7855 51.29C14.7855 50.8967 14.6655 50.6 14.4255 50.4C14.1922 50.2 13.8689 50.1 13.4555 50.1C13.0489 50.1 12.7255 50.2 12.4855 50.4C12.2522 50.6 12.1355 50.8967 12.1355 51.29C12.1355 51.6367 12.2555 51.92 12.4955 52.14C12.7355 52.36 13.0555 52.47 13.4555 52.47ZM19.8102 56.62C19.2236 56.62 18.7169 56.47 18.2902 56.17C17.8702 55.8633 17.5469 55.44 17.3202 54.9C17.0936 54.3533 16.9802 53.72 16.9802 53C16.9802 52.28 17.0936 51.65 17.3202 51.11C17.5469 50.5633 17.8702 50.14 18.2902 49.84C18.7169 49.5333 19.2236 49.38 19.8102 49.38C20.3969 49.38 20.8969 49.5333 21.3102 49.84C21.7302 50.14 22.0536 50.5633 22.2802 51.11C22.5069 51.65 22.6202 52.28 22.6202 53C22.6202 53.72 22.5069 54.3533 22.2802 54.9C22.0536 55.44 21.7302 55.8633 21.3102 56.17C20.8969 56.47 20.3969 56.62 19.8102 56.62ZM19.8102 55.88C20.1836 55.88 20.5136 55.7667 20.8002 55.54C21.0936 55.3067 21.3269 54.9767 21.5002 54.55C21.6736 54.1167 21.7602 53.6 21.7602 53C21.7602 52.3933 21.6736 51.8767 21.5002 51.45C21.3269 51.0233 21.0936 50.6967 20.8002 50.47C20.5136 50.2433 20.1836 50.13 19.8102 50.13C19.4302 50.13 19.0902 50.2433 18.7902 50.47C18.4902 50.6967 18.2569 51.0233 18.0902 51.45C17.9236 51.8767 17.8402 52.3933 17.8402 53C17.8402 53.6 17.9236 54.1167 18.0902 54.55C18.2569 54.9767 18.4902 55.3067 18.7902 55.54C19.0902 55.7667 19.4302 55.88 19.8102 55.88ZM23.8813 56.5V49.5H24.7213V52.67L27.6413 49.5H28.7013L26.1013 52.29L28.7413 56.5H27.7213L25.5013 52.94L24.7213 53.77V56.5H23.8813Z" fill="#B8C4CE"/>
<path d="M6.96062 77.37V68.59H7.65063V77.37H6.96062ZM7.39063 76.62C6.87729 76.62 6.43063 76.5267 6.05063 76.34C5.67063 76.1533 5.37729 75.8933 5.17063 75.56C4.96396 75.2267 4.86063 74.84 4.86063 74.4H5.74063C5.74063 74.6733 5.80396 74.9267 5.93063 75.16C6.05729 75.3867 6.24063 75.57 6.48063 75.71C6.72729 75.8433 7.03063 75.91 7.39063 75.91C7.70396 75.91 7.97063 75.86 8.19063 75.76C8.41729 75.6533 8.58729 75.51 8.70063 75.33C8.82063 75.15 8.88063 74.9467 8.88063 74.72C8.88063 74.46 8.82396 74.2467 8.71063 74.08C8.60396 73.9067 8.45396 73.7667 8.26063 73.66C8.06729 73.5533 7.84063 73.4567 7.58063 73.37C7.32729 73.2833 7.05396 73.1933 6.76063 73.1C6.18063 72.9133 5.75729 72.68 5.49063 72.4C5.23063 72.1133 5.10063 71.7467 5.10063 71.3C5.10063 70.92 5.18729 70.5867 5.36063 70.3C5.54063 70.0133 5.79396 69.79 6.12063 69.63C6.45396 69.4633 6.84729 69.38 7.30063 69.38C7.74729 69.38 8.13396 69.4633 8.46063 69.63C8.79396 69.7967 9.05396 70.0267 9.24063 70.32C9.42729 70.6067 9.52063 70.94 9.52063 71.32H8.64063C8.64063 71.1267 8.59063 70.9367 8.49063 70.75C8.39063 70.5633 8.23729 70.41 8.03063 70.29C7.83063 70.1633 7.57729 70.1 7.27063 70.1C7.01729 70.0933 6.79063 70.1367 6.59063 70.23C6.39729 70.3167 6.24396 70.4433 6.13063 70.61C6.02396 70.7767 5.97063 70.98 5.97063 71.22C5.97063 71.4467 6.01729 71.63 6.11063 71.77C6.21063 71.91 6.35063 72.03 6.53063 72.13C6.71729 72.2233 6.93396 72.31 7.18063 72.39C7.42729 72.47 7.70063 72.56 8.00063 72.66C8.34063 72.7733 8.64063 72.9133 8.90063 73.08C9.16729 73.24 9.37396 73.4467 9.52063 73.7C9.67396 73.9533 9.75063 74.2767 9.75063 74.67C9.75063 75.0033 9.66063 75.32 9.48063 75.62C9.30729 75.9133 9.04729 76.1533 8.70063 76.34C8.35396 76.5267 7.91729 76.62 7.39063 76.62ZM13.4902 76.62C12.9902 76.62 12.5669 76.5267 12.2202 76.34C11.8802 76.1533 11.6069 75.9033 11.4002 75.59C11.2002 75.27 11.0502 74.91 10.9502 74.51C10.8569 74.11 10.8102 73.7 10.8102 73.28C10.8102 72.5067 10.9169 71.83 11.1302 71.25C11.3436 70.6633 11.6502 70.2067 12.0502 69.88C12.4502 69.5467 12.9336 69.38 13.5002 69.38C13.9402 69.38 14.3169 69.4633 14.6302 69.63C14.9502 69.7967 15.2036 70.02 15.3902 70.3C15.5769 70.58 15.6902 70.89 15.7302 71.23H14.9502C14.8836 70.8767 14.7202 70.6033 14.4602 70.41C14.2069 70.21 13.8836 70.11 13.4902 70.11C13.1369 70.11 12.8202 70.22 12.5402 70.44C12.2669 70.66 12.0502 70.9933 11.8902 71.44C11.7302 71.88 11.6369 72.4433 11.6102 73.13C11.6102 73.1433 11.6102 73.1567 11.6102 73.17C11.6102 73.1833 11.6102 73.1967 11.6102 73.21C11.7102 72.9967 11.8536 72.8 12.0402 72.62C12.2269 72.44 12.4536 72.2967 12.7202 72.19C12.9869 72.0767 13.2802 72.02 13.6002 72.02C13.9936 72.02 14.3602 72.1133 14.7002 72.3C15.0402 72.4867 15.3136 72.75 15.5202 73.09C15.7269 73.4233 15.8302 73.8167 15.8302 74.27C15.8302 74.6633 15.7336 75.04 15.5402 75.4C15.3536 75.76 15.0869 76.0533 14.7402 76.28C14.3936 76.5067 13.9769 76.62 13.4902 76.62ZM13.4302 75.88C13.7302 75.88 13.9936 75.8133 14.2202 75.68C14.4536 75.5467 14.6369 75.3633 14.7702 75.13C14.9102 74.89 14.9802 74.6167 14.9802 74.31C14.9802 73.9967 14.9102 73.7233 14.7702 73.49C14.6369 73.2567 14.4536 73.0767 14.2202 72.95C13.9936 72.8167 13.7302 72.75 13.4302 72.75C13.1302 72.75 12.8602 72.82 12.6202 72.96C12.3802 73.0933 12.1869 73.28 12.0402 73.52C11.9002 73.7533 11.8302 74.02 11.8302 74.32C11.8302 74.6267 11.9002 74.9 12.0402 75.14C12.1869 75.3733 12.3802 75.5567 12.6202 75.69C12.8602 75.8167 13.1302 75.88 13.4302 75.88ZM19.8102 76.62C19.2236 76.62 18.7169 76.47 18.2902 76.17C17.8702 75.8633 17.5469 75.44 17.3202 74.9C17.0936 74.3533 16.9802 73.72 16.9802 73C16.9802 72.28 17.0936 71.65 17.3202 71.11C17.5469 70.5633 17.8702 70.14 18.2902 69.84C18.7169 69.5333 19.2236 69.38 19.8102 69.38C20.3969 69.38 20.8969 69.5333 21.3102 69.84C21.7302 70.14 22.0536 70.5633 22.2802 71.11C22.5069 71.65 22.6202 72.28 22.6202 73C22.6202 73.72 22.5069 74.3533 22.2802 74.9C22.0536 75.44 21.7302 75.8633 21.3102 76.17C20.8969 76.47 20.3969 76.62 19.8102 76.62ZM19.8102 75.88C20.1836 75.88 20.5136 75.7667 20.8002 75.54C21.0936 75.3067 21.3269 74.9767 21.5002 74.55C21.6736 74.1167 21.7602 73.6 21.7602 73C21.7602 72.3933 21.6736 71.8767 21.5002 71.45C21.3269 71.0233 21.0936 70.6967 20.8002 70.47C20.5136 70.2433 20.1836 70.13 19.8102 70.13C19.4302 70.13 19.0902 70.2433 18.7902 70.47C18.4902 70.6967 18.2569 71.0233 18.0902 71.45C17.9236 71.8767 17.8402 72.3933 17.8402 73C17.8402 73.6 17.9236 74.1167 18.0902 74.55C18.2569 74.9767 18.4902 75.3067 18.7902 75.54C19.0902 75.7667 19.4302 75.88 19.8102 75.88ZM23.8813 76.5V69.5H24.7213V72.67L27.6413 69.5H28.7013L26.1013 72.29L28.7413 76.5H27.7213L25.5013 72.94L24.7213 73.77V76.5H23.8813Z" fill="#B8C4CE"/>
<path d="M7.07781 97.37V88.59H7.76781V97.37H7.07781ZM7.50781 96.62C6.99448 96.62 6.54781 96.5267 6.16781 96.34C5.78781 96.1533 5.49448 95.8933 5.28781 95.56C5.08115 95.2267 4.97781 94.84 4.97781 94.4H5.85781C5.85781 94.6733 5.92115 94.9267 6.04781 95.16C6.17448 95.3867 6.35781 95.57 6.59781 95.71C6.84448 95.8433 7.14781 95.91 7.50781 95.91C7.82115 95.91 8.08781 95.86 8.30781 95.76C8.53448 95.6533 8.70448 95.51 8.81781 95.33C8.93781 95.15 8.99781 94.9467 8.99781 94.72C8.99781 94.46 8.94115 94.2467 8.82781 94.08C8.72115 93.9067 8.57115 93.7667 8.37781 93.66C8.18448 93.5533 7.95781 93.4567 7.69781 93.37C7.44448 93.2833 7.17115 93.1933 6.87781 93.1C6.29781 92.9133 5.87448 92.68 5.60781 92.4C5.34781 92.1133 5.21781 91.7467 5.21781 91.3C5.21781 90.92 5.30448 90.5867 5.47781 90.3C5.65781 90.0133 5.91115 89.79 6.23781 89.63C6.57115 89.4633 6.96448 89.38 7.41781 89.38C7.86448 89.38 8.25115 89.4633 8.57781 89.63C8.91115 89.7967 9.17115 90.0267 9.35781 90.32C9.54448 90.6067 9.63781 90.94 9.63781 91.32H8.75781C8.75781 91.1267 8.70781 90.9367 8.60781 90.75C8.50781 90.5633 8.35448 90.41 8.14781 90.29C7.94781 90.1633 7.69448 90.1 7.38781 90.1C7.13448 90.0933 6.90781 90.1367 6.70781 90.23C6.51448 90.3167 6.36115 90.4433 6.24781 90.61C6.14115 90.7767 6.08781 90.98 6.08781 91.22C6.08781 91.4467 6.13448 91.63 6.22781 91.77C6.32781 91.91 6.46781 92.03 6.64781 92.13C6.83448 92.2233 7.05115 92.31 7.29781 92.39C7.54448 92.47 7.81781 92.56 8.11781 92.66C8.45781 92.7733 8.75781 92.9133 9.01781 93.08C9.28448 93.24 9.49115 93.4467 9.63781 93.7C9.79115 93.9533 9.86781 94.2767 9.86781 94.67C9.86781 95.0033 9.77781 95.32 9.59781 95.62C9.42448 95.9133 9.16448 96.1533 8.81781 96.34C8.47115 96.5267 8.03448 96.62 7.50781 96.62ZM14.3074 96.5V95H10.7574V94.35L14.1574 89.5H15.1374V94.26H16.1774V95H15.1374V96.5H14.3074ZM11.6874 94.26H14.3474V90.43L11.6874 94.26ZM19.8102 96.62C19.2236 96.62 18.7169 96.47 18.2902 96.17C17.8702 95.8633 17.5469 95.44 17.3202 94.9C17.0936 94.3533 16.9802 93.72 16.9802 93C16.9802 92.28 17.0936 91.65 17.3202 91.11C17.5469 90.5633 17.8702 90.14 18.2902 89.84C18.7169 89.5333 19.2236 89.38 19.8102 89.38C20.3969 89.38 20.8969 89.5333 21.3102 89.84C21.7302 90.14 22.0536 90.5633 22.2802 91.11C22.5069 91.65 22.6202 92.28 22.6202 93C22.6202 93.72 22.5069 94.3533 22.2802 94.9C22.0536 95.44 21.7302 95.8633 21.3102 96.17C20.8969 96.47 20.3969 96.62 19.8102 96.62ZM19.8102 95.88C20.1836 95.88 20.5136 95.7667 20.8002 95.54C21.0936 95.3067 21.3269 94.9767 21.5002 94.55C21.6736 94.1167 21.7602 93.6 21.7602 93C21.7602 92.3933 21.6736 91.8767 21.5002 91.45C21.3269 91.0233 21.0936 90.6967 20.8002 90.47C20.5136 90.2433 20.1836 90.13 19.8102 90.13C19.4302 90.13 19.0902 90.2433 18.7902 90.47C18.4902 90.6967 18.2569 91.0233 18.0902 91.45C17.9236 91.8767 17.8402 92.3933 17.8402 93C17.8402 93.6 17.9236 94.1167 18.0902 94.55C18.2569 94.9767 18.4902 95.3067 18.7902 95.54C19.0902 95.7667 19.4302 95.88 19.8102 95.88ZM23.8813 96.5V89.5H24.7213V92.67L27.6413 89.5H28.7013L26.1013 92.29L28.7413 96.5H27.7213L25.5013 92.94L24.7213 93.77V96.5H23.8813Z" fill="#B8C4CE"/>
<path d="M7.44891 117.37V108.59H8.13891V117.37H7.44891ZM7.87891 116.62C7.36557 116.62 6.91891 116.527 6.53891 116.34C6.15891 116.153 5.86557 115.893 5.65891 115.56C5.45224 115.227 5.34891 114.84 5.34891 114.4H6.22891C6.22891 114.673 6.29224 114.927 6.41891 115.16C6.54557 115.387 6.72891 115.57 6.96891 115.71C7.21557 115.843 7.51891 115.91 7.87891 115.91C8.19224 115.91 8.45891 115.86 8.67891 115.76C8.90557 115.653 9.07557 115.51 9.18891 115.33C9.30891 115.15 9.36891 114.947 9.36891 114.72C9.36891 114.46 9.31224 114.247 9.19891 114.08C9.09224 113.907 8.94224 113.767 8.74891 113.66C8.55557 113.553 8.32891 113.457 8.06891 113.37C7.81557 113.283 7.54224 113.193 7.24891 113.1C6.66891 112.913 6.24557 112.68 5.97891 112.4C5.71891 112.113 5.58891 111.747 5.58891 111.3C5.58891 110.92 5.67557 110.587 5.84891 110.3C6.02891 110.013 6.28224 109.79 6.60891 109.63C6.94224 109.463 7.33557 109.38 7.78891 109.38C8.23557 109.38 8.62224 109.463 8.94891 109.63C9.28224 109.797 9.54224 110.027 9.72891 110.32C9.91557 110.607 10.0089 110.94 10.0089 111.32H9.12891C9.12891 111.127 9.07891 110.937 8.97891 110.75C8.87891 110.563 8.72557 110.41 8.51891 110.29C8.31891 110.163 8.06557 110.1 7.75891 110.1C7.50557 110.093 7.27891 110.137 7.07891 110.23C6.88557 110.317 6.73224 110.443 6.61891 110.61C6.51224 110.777 6.45891 110.98 6.45891 111.22C6.45891 111.447 6.50557 111.63 6.59891 111.77C6.69891 111.91 6.83891 112.03 7.01891 112.13C7.20557 112.223 7.42224 112.31 7.66891 112.39C7.91557 112.47 8.18891 112.56 8.48891 112.66C8.82891 112.773 9.12891 112.913 9.38891 113.08C9.65557 113.24 9.86224 113.447 10.0089 113.7C10.1622 113.953 10.2389 114.277 10.2389 114.67C10.2389 115.003 10.1489 115.32 9.96891 115.62C9.79557 115.913 9.53557 116.153 9.18891 116.34C8.84224 116.527 8.40557 116.62 7.87891 116.62ZM11.3785 116.5V115.91C11.8652 115.537 12.3285 115.16 12.7685 114.78C13.2085 114.4 13.5952 114.023 13.9285 113.65C14.2685 113.27 14.5352 112.9 14.7285 112.54C14.9218 112.18 15.0185 111.833 15.0185 111.5C15.0185 111.253 14.9718 111.027 14.8785 110.82C14.7918 110.607 14.6518 110.433 14.4585 110.3C14.2652 110.167 14.0018 110.1 13.6685 110.1C13.3485 110.1 13.0818 110.17 12.8685 110.31C12.6618 110.443 12.5052 110.623 12.3985 110.85C12.2918 111.07 12.2385 111.313 12.2385 111.58H11.4285C11.4352 111.12 11.5352 110.727 11.7285 110.4C11.9218 110.067 12.1852 109.813 12.5185 109.64C12.8585 109.467 13.2452 109.38 13.6785 109.38C14.1052 109.38 14.4785 109.46 14.7985 109.62C15.1252 109.773 15.3818 110.007 15.5685 110.32C15.7618 110.627 15.8585 111.01 15.8585 111.47C15.8585 111.797 15.7885 112.123 15.6485 112.45C15.5152 112.777 15.3318 113.097 15.0985 113.41C14.8652 113.717 14.6085 114.013 14.3285 114.3C14.0485 114.587 13.7585 114.857 13.4585 115.11C13.1585 115.363 12.8785 115.593 12.6185 115.8H16.0985V116.5H11.3785ZM19.8102 116.62C19.2236 116.62 18.7169 116.47 18.2902 116.17C17.8702 115.863 17.5469 115.44 17.3202 114.9C17.0936 114.353 16.9802 113.72 16.9802 113C16.9802 112.28 17.0936 111.65 17.3202 111.11C17.5469 110.563 17.8702 110.14 18.2902 109.84C18.7169 109.533 19.2236 109.38 19.8102 109.38C20.3969 109.38 20.8969 109.533 21.3102 109.84C21.7302 110.14 22.0536 110.563 22.2802 111.11C22.5069 111.65 22.6202 112.28 22.6202 113C22.6202 113.72 22.5069 114.353 22.2802 114.9C22.0536 115.44 21.7302 115.863 21.3102 116.17C20.8969 116.47 20.3969 116.62 19.8102 116.62ZM19.8102 115.88C20.1836 115.88 20.5136 115.767 20.8002 115.54C21.0936 115.307 21.3269 114.977 21.5002 114.55C21.6736 114.117 21.7602 113.6 21.7602 113C21.7602 112.393 21.6736 111.877 21.5002 111.45C21.3269 111.023 21.0936 110.697 20.8002 110.47C20.5136 110.243 20.1836 110.13 19.8102 110.13C19.4302 110.13 19.0902 110.243 18.7902 110.47C18.4902 110.697 18.2569 111.023 18.0902 111.45C17.9236 111.877 17.8402 112.393 17.8402 113C17.8402 113.6 17.9236 114.117 18.0902 114.55C18.2569 114.977 18.4902 115.307 18.7902 115.54C19.0902 115.767 19.4302 115.88 19.8102 115.88ZM23.8813 116.5V109.5H24.7213V112.67L27.6413 109.5H28.7013L26.1013 112.29L28.7413 116.5H27.7213L25.5013 112.94L24.7213 113.77V116.5H23.8813Z" fill="#B8C4CE"/>
<path d="M19.0993 137.37V128.59H19.7893V137.37H19.0993ZM19.5293 136.62C19.016 136.62 18.5693 136.527 18.1893 136.34C17.8093 136.153 17.516 135.893 17.3093 135.56C17.1026 135.227 16.9993 134.84 16.9993 134.4H17.8793C17.8793 134.673 17.9426 134.927 18.0693 135.16C18.196 135.387 18.3793 135.57 18.6193 135.71C18.866 135.843 19.1693 135.91 19.5293 135.91C19.8426 135.91 20.1093 135.86 20.3293 135.76C20.556 135.653 20.726 135.51 20.8393 135.33C20.9593 135.15 21.0193 134.947 21.0193 134.72C21.0193 134.46 20.9626 134.247 20.8493 134.08C20.7426 133.907 20.5926 133.767 20.3993 133.66C20.206 133.553 19.9793 133.457 19.7193 133.37C19.466 133.283 19.1926 133.193 18.8993 133.1C18.3193 132.913 17.896 132.68 17.6293 132.4C17.3693 132.113 17.2393 131.747 17.2393 131.3C17.2393 130.92 17.326 130.587 17.4993 130.3C17.6793 130.013 17.9326 129.79 18.2593 129.63C18.5926 129.463 18.986 129.38 19.4393 129.38C19.886 129.38 20.2726 129.463 20.5993 129.63C20.9326 129.797 21.1926 130.027 21.3793 130.32C21.566 130.607 21.6593 130.94 21.6593 131.32H20.7793C20.7793 131.127 20.7293 130.937 20.6293 130.75C20.5293 130.563 20.376 130.41 20.1693 130.29C19.9693 130.163 19.716 130.1 19.4093 130.1C19.156 130.093 18.9293 130.137 18.7293 130.23C18.536 130.317 18.3826 130.443 18.2693 130.61C18.1626 130.777 18.1093 130.98 18.1093 131.22C18.1093 131.447 18.156 131.63 18.2493 131.77C18.3493 131.91 18.4893 132.03 18.6693 132.13C18.856 132.223 19.0726 132.31 19.3193 132.39C19.566 132.47 19.8393 132.56 20.1393 132.66C20.4793 132.773 20.7793 132.913 21.0393 133.08C21.306 133.24 21.5126 133.447 21.6593 133.7C21.8126 133.953 21.8893 134.277 21.8893 134.67C21.8893 135.003 21.7993 135.32 21.6193 135.62C21.446 135.913 21.186 136.153 20.8393 136.34C20.4926 136.527 20.056 136.62 19.5293 136.62ZM25.6989 136.62C25.1122 136.62 24.6056 136.47 24.1789 136.17C23.7589 135.863 23.4356 135.44 23.2089 134.9C22.9822 134.353 22.8689 133.72 22.8689 133C22.8689 132.28 22.9822 131.65 23.2089 131.11C23.4356 130.563 23.7589 130.14 24.1789 129.84C24.6056 129.533 25.1122 129.38 25.6989 129.38C26.2856 129.38 26.7856 129.533 27.1989 129.84C27.6189 130.14 27.9422 130.563 28.1689 131.11C28.3956 131.65 28.5089 132.28 28.5089 133C28.5089 133.72 28.3956 134.353 28.1689 134.9C27.9422 135.44 27.6189 135.863 27.1989 136.17C26.7856 136.47 26.2856 136.62 25.6989 136.62ZM25.6989 135.88C26.0722 135.88 26.4022 135.767 26.6889 135.54C26.9822 135.307 27.2156 134.977 27.3889 134.55C27.5622 134.117 27.6489 133.6 27.6489 133C27.6489 132.393 27.5622 131.877 27.3889 131.45C27.2156 131.023 26.9822 130.697 26.6889 130.47C26.4022 130.243 26.0722 130.13 25.6989 130.13C25.3189 130.13 24.9789 130.243 24.6789 130.47C24.3789 130.697 24.1456 131.023 23.9789 131.45C23.8122 131.877 23.7289 132.393 23.7289 133C23.7289 133.6 23.8122 134.117 23.9789 134.55C24.1456 134.977 24.3789 135.307 24.6789 135.54C24.9789 135.767 25.3189 135.88 25.6989 135.88Z" fill="#B8C4CE"/>
<path opacity="0.5" d="M32.6865 1H364.303" stroke="#E1E7EC" stroke-width="0.5"/>
<path opacity="0.5" d="M32.6865 36.1569H364.303" stroke="#E1E7EC" stroke-width="0.5"/>
<path opacity="0.5" d="M32.6865 68.1177H364.303" stroke="#E1E7EC" stroke-width="0.5"/>
<path opacity="0.5" d="M32.6865 100.078H364.303" stroke="#E1E7EC" stroke-width="0.5"/>
<path opacity="0.5" d="M32.6865 132.039H364.303" stroke="#E1E7EC" stroke-width="0.5"/>
<path opacity="0.5" d="M32.6865 164H364.303" stroke="#E1E7EC" stroke-width="0.5"/>
<path opacity="0.5" d="M44.0186 1L44.0185 164" stroke="#E1E7EC" stroke-width="0.5"/>
<path opacity="0.5" d="M98.8252 1L98.8252 164" stroke="#E1E7EC" stroke-width="0.5"/>
<path opacity="0.5" d="M153.941 1L153.941 164" stroke="#E1E7EC" stroke-width="0.5"/>
<path opacity="0.5" d="M209.059 1L209.059 164" stroke="#E1E7EC" stroke-width="0.5"/>
<path opacity="0.5" d="M264.175 1L264.175 164" stroke="#E1E7EC" stroke-width="0.5"/>
<path opacity="0.5" d="M319.291 1L319.291 164" stroke="#E1E7EC" stroke-width="0.5"/>
<path d="M213 45C213 43.8954 213.895 43 215 43H265C266.105 43 267 43.8954 267 45V164H213V45Z" fill="url(#paint0_linear_661_646)"/>
<path d="M278 97C278 95.8954 278.895 95 280 95H330C331.105 95 332 95.8954 332 97V165H278V97Z" fill="#356EBE"/>
<path d="M83 45C83 43.8954 83.8954 43 85 43H135C136.105 43 137 43.8954 137 45V164H83V45Z" fill="#0047AB"/>
<path d="M148 97C148 95.8954 148.895 95 150 95H200C201.105 95 202 95.8954 202 97V165H148V97Z" fill="#05E02D"/>
<defs>
<linearGradient id="paint0_linear_661_646" x1="240" y1="164" x2="240" y2="43" gradientUnits="userSpaceOnUse">
<stop stop-color="#001C93"/>
<stop offset="1" stop-color="#002B67"/>
</linearGradient>
</defs>
</svg>
