<svg width="32" height="32" viewBox="0 0 32 32" fill="none" xmlns="http://www.w3.org/2000/svg">
<path d="M31.3134 16.3589C31.3438 8.09944 24.6125 1.33354 16.3435 1.31425L31.3134 16.3589ZM31.3134 16.3589C31.2829 24.628 24.5086 31.3531 16.2516 31.314M31.3134 16.3589L16.2516 31.314M16.2516 31.314C8.00794 31.275 1.30335 24.535 1.31349 16.2985M16.2516 31.314L1.31349 16.2985M1.31349 16.2985C1.32363 8.03303 8.0824 1.2955 16.3434 1.31425L1.31349 16.2985ZM16.3005 4.40398C9.73343 4.40508 4.41151 9.71519 4.4033 16.2763C4.3951 22.8857 9.69941 28.2189 16.2929 28.2238C22.897 28.2287 28.223 22.914 28.2236 16.3168C28.2241 9.71462 22.9069 4.40234 16.3005 4.40398ZM16.3005 4.40398L16.3006 4.90398L16.3005 4.40398Z" fill="#C93C3C" stroke="#C93C3C"/>
<path d="M15.6884 17.3383V16.8383C15.6884 16.3087 15.6904 15.7899 15.6924 15.2784C15.6969 14.0973 15.7013 12.9551 15.6807 11.8102L15.6807 11.8101C15.6661 10.9901 14.9287 10.2998 13.9834 10.3144L13.9833 10.3144C13.0394 10.3288 12.3421 11.0014 12.3328 11.7971L15.6884 17.3383ZM15.6884 17.3383H16.1884M15.6884 17.3383H16.1884M16.1884 17.3383C16.664 17.3383 17.1285 17.3368 17.5857 17.3352C18.5934 17.3319 19.5651 17.3287 20.5393 17.3423L20.5393 17.3423M16.1884 17.3383L20.5393 17.3423M20.5393 17.3423C21.2144 17.3516 21.7354 17.631 22.0293 18.0007C22.3175 18.3633 22.4064 18.8307 22.2029 19.3116C21.9394 19.934 21.423 20.284 20.6445 20.2939C18.4423 20.3213 16.2391 20.3198 14.0358 20.2964H14.0358M20.5393 17.3423L14.0358 20.2964M14.0358 20.2964C13.0056 20.2856 12.3407 19.6193 12.3323 18.8025L12.3323 18.8024M14.0358 20.2964L12.3323 18.8024M12.3323 18.8024C12.3077 16.4674 12.3066 14.1317 12.3328 11.7973L12.3323 18.8024Z" fill="#C93C3C" stroke="white"/>
</svg>
