<svg width="40" height="33" viewBox="0 0 40 33" fill="none" xmlns="http://www.w3.org/2000/svg">
<mask id="path-1-outside-1_559_229" maskUnits="userSpaceOnUse" x="0" y="-0.5" width="40" height="34" fill="black">
<rect fill="white" y="-0.5" width="40" height="34"/>
<path d="M5.21706 15.2783C4.18546 14.2562 3.77148 13.086 4.09763 11.7199C4.58575 9.67418 6.65246 8.49986 8.67557 9.11102C8.97786 9.2023 9.12328 9.14924 9.31261 8.90541C9.97415 8.05357 10.8253 7.43072 11.8162 6.99548C11.9244 6.9481 12.0304 6.89536 12.1417 6.84293C10.5657 4.73086 10.5965 2.76092 12.2089 1.38035C13.6484 0.147914 15.8109 0.227192 17.1524 1.54996C18.3708 2.75113 18.8074 5.0148 17.0366 6.81008C17.4862 7.05739 17.9559 7.26742 18.3683 7.55737C18.7122 7.799 19.025 7.92691 19.4543 7.82679C19.7394 7.76015 20.0649 7.75194 20.3487 7.81732C20.9349 7.9525 21.3861 7.75762 21.8455 7.42409C22.18 7.18151 22.5796 7.02833 22.9923 6.81324C22.0676 5.93171 21.6581 4.86604 21.8153 3.61971C21.928 2.72649 22.348 1.97888 23.035 1.38572C24.4252 0.1855 26.489 0.207925 27.857 1.43562C29.4041 2.8244 29.4123 4.69896 27.9381 6.74438C28.6856 7.27437 29.4464 7.78541 30.1712 8.34225C30.4672 8.56966 30.6374 9.02701 30.9524 9.1404C31.2439 9.24557 31.6496 8.98911 32.0098 8.96447C33.5521 8.85866 34.7517 9.46003 35.5399 10.7847C36.2762 12.0222 36.1432 13.6153 35.2519 14.7549C35.1189 14.9251 34.9694 15.0827 34.8119 15.264C35.1813 15.4536 35.5476 15.6257 35.8982 15.8253C36.3599 16.0884 36.4907 16.4339 36.2899 16.7867C36.0831 17.1506 35.6987 17.2059 35.2281 16.9396C32.7859 15.5571 29.7732 16.0808 28.0985 18.1822C27.6438 18.7529 27.3179 19.39 27.1907 20.1101C27.1681 20.2371 27.2298 20.4184 27.3176 20.5178C27.8194 21.087 28.3371 21.6429 28.8599 22.1934C28.956 22.2945 29.0906 22.3937 29.223 22.4218C31.5137 22.9066 33.8105 22.9508 36.0605 22.2645C37.9003 21.7035 37.921 21.3135 37.4351 19.6587C37.29 19.1644 36.981 18.7115 36.7096 18.2621C36.4611 17.8508 36.4586 17.4819 36.7675 17.2501C37.0905 17.0075 37.4784 17.1039 37.7797 17.504C38.5361 18.5087 38.9294 19.6398 38.9965 20.8912C39.0353 21.6148 38.7483 22.1811 38.2036 22.6321C37.3339 23.3523 36.2791 23.6248 35.1985 23.8137C33.5343 24.1043 31.8622 24.1378 30.1862 23.9129C30.1073 23.9021 30.0255 23.9116 29.9094 23.9116C29.9456 24.0241 29.9692 24.1223 30.008 24.2148C30.4634 25.3001 30.696 26.4283 30.7593 27.6039C30.8156 28.6506 30.4236 29.4737 29.6513 30.148C28.8135 30.8798 27.8124 31.3037 26.7605 31.6129C24.1286 32.3861 21.4297 32.6069 18.7036 32.455C17.414 32.3833 16.1323 32.1713 14.8471 32.0201C14.7392 32.0074 14.6323 31.9803 14.5279 31.9499C14.1454 31.8388 13.9539 31.5447 14.0248 31.1862C14.0929 30.8435 14.4092 30.6354 14.7958 30.6913C15.6855 30.8205 16.5704 31.0014 17.4646 31.0798C20.6141 31.3565 23.7334 31.2295 26.7678 30.2377C27.1671 30.1073 27.5588 29.9399 27.9311 29.746C29.3086 29.028 29.6007 28.3758 29.3885 26.8414C28.8685 23.0806 25.8339 19.9389 21.7526 19.2933C17.7478 18.6594 14.4302 19.9291 12.0179 23.2348C11.0773 24.5237 10.6347 26.0063 10.5514 27.6029C10.5135 28.3259 10.7776 28.8622 11.3402 29.2845C11.427 29.3499 11.5184 29.4121 11.5941 29.4885C11.8474 29.7441 11.8897 30.0315 11.6842 30.3328C11.4901 30.6174 11.1149 30.708 10.8155 30.5037C9.85737 29.8502 9.20887 29.0173 9.23974 27.7849C9.27092 26.5385 9.51371 25.3424 10.0015 24.1943C10.0375 24.1097 10.0617 24.02 10.1033 23.8984C9.64067 23.9391 9.2092 23.9874 8.77613 24.014C6.89684 24.1292 5.04205 24.0117 3.24104 23.4148C3.07367 23.3592 2.90852 23.2929 2.74878 23.218C1.19788 22.4909 0.754625 21.6119 1.12119 19.9449C1.58863 17.8211 2.87575 16.3562 4.83808 15.445C4.94659 15.3945 5.05732 15.3487 5.21706 15.2783ZM22.7496 8.42406C23.1686 8.75822 23.6055 9.07786 24.0071 9.43635C24.3036 9.70134 24.302 10.0788 24.0609 10.3441C23.8155 10.6141 23.4601 10.634 23.1432 10.3937C23.0891 10.3526 23.041 10.304 22.9901 10.2591C21.5471 8.98848 19.5733 8.73327 17.932 9.60501C16.2685 10.4884 15.3877 12.2644 15.6642 14.1775C15.9636 16.2485 17.869 17.8331 20.0388 17.8161C22.2067 17.799 24.0739 16.1803 24.3507 14.1039C24.4592 13.2894 24.3456 12.5174 24.0593 11.7547C23.9078 11.3513 24.0577 11.0244 24.4153 10.8836C24.7679 10.7446 25.0925 10.8952 25.2707 11.2875C25.3263 11.4104 25.3693 11.5393 25.4126 11.6672C25.6993 12.5133 25.7766 13.381 25.6477 14.3083C26.7923 14.3013 27.8859 14.1876 28.9713 13.8715C28.5001 12.3706 28.775 11.0743 29.8289 9.96318C28.5233 7.80468 24.8436 7.01633 22.7496 8.42406ZM8.06686 22.7771C8.54989 22.7221 9.46821 22.617 10.3865 22.5127C10.7961 22.4663 11.1085 22.3055 11.3564 21.9417C11.6208 21.5535 11.968 21.2171 12.3024 20.8808C12.9417 20.238 12.9506 20.2348 12.5987 19.3723C11.6415 17.0268 8.94573 15.6829 6.37308 16.3123C4.34901 16.8076 2.97184 18.0227 2.43599 20.0637C2.11525 21.2847 2.3434 21.6805 3.52933 22.1325C4.84827 22.635 6.22957 22.7398 8.06686 22.7771ZM10.1702 9.96129C11.2361 11.0769 11.5009 12.3873 11.0325 13.8765C12.1306 14.1772 13.2201 14.3171 14.3523 14.2969C14.1874 13.0727 14.3742 11.9559 14.9088 10.8984C15.4427 9.84158 16.2624 9.05228 17.2969 8.45438C15.0892 7.08802 11.6794 7.68245 10.1702 9.96129ZM16.9052 4.12885C16.9134 2.83893 15.8768 1.7979 14.5855 1.79853C13.3152 1.79916 12.2763 2.82409 12.261 4.09095C12.2458 5.36381 13.3022 6.42159 14.5884 6.42127C15.8628 6.42095 16.8972 5.39729 16.9052 4.12885ZM23.0967 4.1118C23.0973 5.38245 24.1232 6.41243 25.3967 6.42127C26.6835 6.43043 27.7434 5.38498 27.7424 4.10801C27.7415 2.84746 26.7022 1.80801 25.4339 1.79853C24.1429 1.78874 23.0958 2.82472 23.0967 4.1118ZM9.94424 12.549C9.94169 11.2771 8.91581 10.2512 7.64047 10.2452C6.34953 10.2389 5.29343 11.2818 5.29725 12.5591C5.30106 13.8194 6.34253 14.8588 7.60992 14.868C8.89863 14.8774 9.9471 13.8358 9.94424 12.549ZM30.0576 12.5493C30.0561 13.8367 31.1036 14.8774 32.392 14.868C33.6594 14.8588 34.7011 13.8184 34.7046 12.5588C34.7081 11.2825 33.6508 10.2386 32.3605 10.2452C31.0845 10.2515 30.0596 11.2774 30.0576 12.5493ZM10.0674 15.1538C10.0632 15.1977 10.0591 15.2413 10.055 15.2852C12.0329 16.0887 13.3945 17.4674 14.0232 19.443C14.9804 19.0195 15.9032 18.6111 16.8358 18.1983C16.7683 18.1446 16.6878 18.0767 16.6035 18.0138C15.8484 17.4525 15.2524 16.7574 14.8588 15.9065C14.75 15.6709 14.6195 15.6048 14.3685 15.6048C13.0696 15.6052 11.7908 15.4453 10.5367 15.0947C10.397 15.0556 10.2246 15.1314 10.0674 15.1538ZM25.9818 19.4443C26.6138 17.4563 27.9731 16.0897 29.938 15.2233C29.7799 15.1349 29.609 15.0534 29.4731 15.0922C28.2197 15.4498 26.9396 15.6042 25.641 15.6029C25.3626 15.6029 25.2423 15.6983 25.1284 15.9384C24.7332 16.7722 24.1461 17.4582 23.4019 18.011C23.3109 18.0786 23.2265 18.1544 23.1724 18.1989C24.1076 18.6136 25.0244 19.0198 25.9818 19.4443Z"/>
</mask>
<path d="M5.21706 15.2783C4.18546 14.2562 3.77148 13.086 4.09763 11.7199C4.58575 9.67418 6.65246 8.49986 8.67557 9.11102C8.97786 9.2023 9.12328 9.14924 9.31261 8.90541C9.97415 8.05357 10.8253 7.43072 11.8162 6.99548C11.9244 6.9481 12.0304 6.89536 12.1417 6.84293C10.5657 4.73086 10.5965 2.76092 12.2089 1.38035C13.6484 0.147914 15.8109 0.227192 17.1524 1.54996C18.3708 2.75113 18.8074 5.0148 17.0366 6.81008C17.4862 7.05739 17.9559 7.26742 18.3683 7.55737C18.7122 7.799 19.025 7.92691 19.4543 7.82679C19.7394 7.76015 20.0649 7.75194 20.3487 7.81732C20.9349 7.9525 21.3861 7.75762 21.8455 7.42409C22.18 7.18151 22.5796 7.02833 22.9923 6.81324C22.0676 5.93171 21.6581 4.86604 21.8153 3.61971C21.928 2.72649 22.348 1.97888 23.035 1.38572C24.4252 0.1855 26.489 0.207925 27.857 1.43562C29.4041 2.8244 29.4123 4.69896 27.9381 6.74438C28.6856 7.27437 29.4464 7.78541 30.1712 8.34225C30.4672 8.56966 30.6374 9.02701 30.9524 9.1404C31.2439 9.24557 31.6496 8.98911 32.0098 8.96447C33.5521 8.85866 34.7517 9.46003 35.5399 10.7847C36.2762 12.0222 36.1432 13.6153 35.2519 14.7549C35.1189 14.9251 34.9694 15.0827 34.8119 15.264C35.1813 15.4536 35.5476 15.6257 35.8982 15.8253C36.3599 16.0884 36.4907 16.4339 36.2899 16.7867C36.0831 17.1506 35.6987 17.2059 35.2281 16.9396C32.7859 15.5571 29.7732 16.0808 28.0985 18.1822C27.6438 18.7529 27.3179 19.39 27.1907 20.1101C27.1681 20.2371 27.2298 20.4184 27.3176 20.5178C27.8194 21.087 28.3371 21.6429 28.8599 22.1934C28.956 22.2945 29.0906 22.3937 29.223 22.4218C31.5137 22.9066 33.8105 22.9508 36.0605 22.2645C37.9003 21.7035 37.921 21.3135 37.4351 19.6587C37.29 19.1644 36.981 18.7115 36.7096 18.2621C36.4611 17.8508 36.4586 17.4819 36.7675 17.2501C37.0905 17.0075 37.4784 17.1039 37.7797 17.504C38.5361 18.5087 38.9294 19.6398 38.9965 20.8912C39.0353 21.6148 38.7483 22.1811 38.2036 22.6321C37.3339 23.3523 36.2791 23.6248 35.1985 23.8137C33.5343 24.1043 31.8622 24.1378 30.1862 23.9129C30.1073 23.9021 30.0255 23.9116 29.9094 23.9116C29.9456 24.0241 29.9692 24.1223 30.008 24.2148C30.4634 25.3001 30.696 26.4283 30.7593 27.6039C30.8156 28.6506 30.4236 29.4737 29.6513 30.148C28.8135 30.8798 27.8124 31.3037 26.7605 31.6129C24.1286 32.3861 21.4297 32.6069 18.7036 32.455C17.414 32.3833 16.1323 32.1713 14.8471 32.0201C14.7392 32.0074 14.6323 31.9803 14.5279 31.9499C14.1454 31.8388 13.9539 31.5447 14.0248 31.1862C14.0929 30.8435 14.4092 30.6354 14.7958 30.6913C15.6855 30.8205 16.5704 31.0014 17.4646 31.0798C20.6141 31.3565 23.7334 31.2295 26.7678 30.2377C27.1671 30.1073 27.5588 29.9399 27.9311 29.746C29.3086 29.028 29.6007 28.3758 29.3885 26.8414C28.8685 23.0806 25.8339 19.9389 21.7526 19.2933C17.7478 18.6594 14.4302 19.9291 12.0179 23.2348C11.0773 24.5237 10.6347 26.0063 10.5514 27.6029C10.5135 28.3259 10.7776 28.8622 11.3402 29.2845C11.427 29.3499 11.5184 29.4121 11.5941 29.4885C11.8474 29.7441 11.8897 30.0315 11.6842 30.3328C11.4901 30.6174 11.1149 30.708 10.8155 30.5037C9.85737 29.8502 9.20887 29.0173 9.23974 27.7849C9.27092 26.5385 9.51371 25.3424 10.0015 24.1943C10.0375 24.1097 10.0617 24.02 10.1033 23.8984C9.64067 23.9391 9.2092 23.9874 8.77613 24.014C6.89684 24.1292 5.04205 24.0117 3.24104 23.4148C3.07367 23.3592 2.90852 23.2929 2.74878 23.218C1.19788 22.4909 0.754625 21.6119 1.12119 19.9449C1.58863 17.8211 2.87575 16.3562 4.83808 15.445C4.94659 15.3945 5.05732 15.3487 5.21706 15.2783ZM22.7496 8.42406C23.1686 8.75822 23.6055 9.07786 24.0071 9.43635C24.3036 9.70134 24.302 10.0788 24.0609 10.3441C23.8155 10.6141 23.4601 10.634 23.1432 10.3937C23.0891 10.3526 23.041 10.304 22.9901 10.2591C21.5471 8.98848 19.5733 8.73327 17.932 9.60501C16.2685 10.4884 15.3877 12.2644 15.6642 14.1775C15.9636 16.2485 17.869 17.8331 20.0388 17.8161C22.2067 17.799 24.0739 16.1803 24.3507 14.1039C24.4592 13.2894 24.3456 12.5174 24.0593 11.7547C23.9078 11.3513 24.0577 11.0244 24.4153 10.8836C24.7679 10.7446 25.0925 10.8952 25.2707 11.2875C25.3263 11.4104 25.3693 11.5393 25.4126 11.6672C25.6993 12.5133 25.7766 13.381 25.6477 14.3083C26.7923 14.3013 27.8859 14.1876 28.9713 13.8715C28.5001 12.3706 28.775 11.0743 29.8289 9.96318C28.5233 7.80468 24.8436 7.01633 22.7496 8.42406ZM8.06686 22.7771C8.54989 22.7221 9.46821 22.617 10.3865 22.5127C10.7961 22.4663 11.1085 22.3055 11.3564 21.9417C11.6208 21.5535 11.968 21.2171 12.3024 20.8808C12.9417 20.238 12.9506 20.2348 12.5987 19.3723C11.6415 17.0268 8.94573 15.6829 6.37308 16.3123C4.34901 16.8076 2.97184 18.0227 2.43599 20.0637C2.11525 21.2847 2.3434 21.6805 3.52933 22.1325C4.84827 22.635 6.22957 22.7398 8.06686 22.7771ZM10.1702 9.96129C11.2361 11.0769 11.5009 12.3873 11.0325 13.8765C12.1306 14.1772 13.2201 14.3171 14.3523 14.2969C14.1874 13.0727 14.3742 11.9559 14.9088 10.8984C15.4427 9.84158 16.2624 9.05228 17.2969 8.45438C15.0892 7.08802 11.6794 7.68245 10.1702 9.96129ZM16.9052 4.12885C16.9134 2.83893 15.8768 1.7979 14.5855 1.79853C13.3152 1.79916 12.2763 2.82409 12.261 4.09095C12.2458 5.36381 13.3022 6.42159 14.5884 6.42127C15.8628 6.42095 16.8972 5.39729 16.9052 4.12885ZM23.0967 4.1118C23.0973 5.38245 24.1232 6.41243 25.3967 6.42127C26.6835 6.43043 27.7434 5.38498 27.7424 4.10801C27.7415 2.84746 26.7022 1.80801 25.4339 1.79853C24.1429 1.78874 23.0958 2.82472 23.0967 4.1118ZM9.94424 12.549C9.94169 11.2771 8.91581 10.2512 7.64047 10.2452C6.34953 10.2389 5.29343 11.2818 5.29725 12.5591C5.30106 13.8194 6.34253 14.8588 7.60992 14.868C8.89863 14.8774 9.9471 13.8358 9.94424 12.549ZM30.0576 12.5493C30.0561 13.8367 31.1036 14.8774 32.392 14.868C33.6594 14.8588 34.7011 13.8184 34.7046 12.5588C34.7081 11.2825 33.6508 10.2386 32.3605 10.2452C31.0845 10.2515 30.0596 11.2774 30.0576 12.5493ZM10.0674 15.1538C10.0632 15.1977 10.0591 15.2413 10.055 15.2852C12.0329 16.0887 13.3945 17.4674 14.0232 19.443C14.9804 19.0195 15.9032 18.6111 16.8358 18.1983C16.7683 18.1446 16.6878 18.0767 16.6035 18.0138C15.8484 17.4525 15.2524 16.7574 14.8588 15.9065C14.75 15.6709 14.6195 15.6048 14.3685 15.6048C13.0696 15.6052 11.7908 15.4453 10.5367 15.0947C10.397 15.0556 10.2246 15.1314 10.0674 15.1538ZM25.9818 19.4443C26.6138 17.4563 27.9731 16.0897 29.938 15.2233C29.7799 15.1349 29.609 15.0534 29.4731 15.0922C28.2197 15.4498 26.9396 15.6042 25.641 15.6029C25.3626 15.6029 25.2423 15.6983 25.1284 15.9384C24.7332 16.7722 24.1461 17.4582 23.4019 18.011C23.3109 18.0786 23.2265 18.1544 23.1724 18.1989C24.1076 18.6136 25.0244 19.0198 25.9818 19.4443Z" fill="#0047AB"/>
<path d="M5.21706 15.2783C4.18546 14.2562 3.77148 13.086 4.09763 11.7199C4.58575 9.67418 6.65246 8.49986 8.67557 9.11102C8.97786 9.2023 9.12328 9.14924 9.31261 8.90541C9.97415 8.05357 10.8253 7.43072 11.8162 6.99548C11.9244 6.9481 12.0304 6.89536 12.1417 6.84293C10.5657 4.73086 10.5965 2.76092 12.2089 1.38035C13.6484 0.147914 15.8109 0.227192 17.1524 1.54996C18.3708 2.75113 18.8074 5.0148 17.0366 6.81008C17.4862 7.05739 17.9559 7.26742 18.3683 7.55737C18.7122 7.799 19.025 7.92691 19.4543 7.82679C19.7394 7.76015 20.0649 7.75194 20.3487 7.81732C20.9349 7.9525 21.3861 7.75762 21.8455 7.42409C22.18 7.18151 22.5796 7.02833 22.9923 6.81324C22.0676 5.93171 21.6581 4.86604 21.8153 3.61971C21.928 2.72649 22.348 1.97888 23.035 1.38572C24.4252 0.1855 26.489 0.207925 27.857 1.43562C29.4041 2.8244 29.4123 4.69896 27.9381 6.74438C28.6856 7.27437 29.4464 7.78541 30.1712 8.34225C30.4672 8.56966 30.6374 9.02701 30.9524 9.1404C31.2439 9.24557 31.6496 8.98911 32.0098 8.96447C33.5521 8.85866 34.7517 9.46003 35.5399 10.7847C36.2762 12.0222 36.1432 13.6153 35.2519 14.7549C35.1189 14.9251 34.9694 15.0827 34.8119 15.264C35.1813 15.4536 35.5476 15.6257 35.8982 15.8253C36.3599 16.0884 36.4907 16.4339 36.2899 16.7867C36.0831 17.1506 35.6987 17.2059 35.2281 16.9396C32.7859 15.5571 29.7732 16.0808 28.0985 18.1822C27.6438 18.7529 27.3179 19.39 27.1907 20.1101C27.1681 20.2371 27.2298 20.4184 27.3176 20.5178C27.8194 21.087 28.3371 21.6429 28.8599 22.1934C28.956 22.2945 29.0906 22.3937 29.223 22.4218C31.5137 22.9066 33.8105 22.9508 36.0605 22.2645C37.9003 21.7035 37.921 21.3135 37.4351 19.6587C37.29 19.1644 36.981 18.7115 36.7096 18.2621C36.4611 17.8508 36.4586 17.4819 36.7675 17.2501C37.0905 17.0075 37.4784 17.1039 37.7797 17.504C38.5361 18.5087 38.9294 19.6398 38.9965 20.8912C39.0353 21.6148 38.7483 22.1811 38.2036 22.6321C37.3339 23.3523 36.2791 23.6248 35.1985 23.8137C33.5343 24.1043 31.8622 24.1378 30.1862 23.9129C30.1073 23.9021 30.0255 23.9116 29.9094 23.9116C29.9456 24.0241 29.9692 24.1223 30.008 24.2148C30.4634 25.3001 30.696 26.4283 30.7593 27.6039C30.8156 28.6506 30.4236 29.4737 29.6513 30.148C28.8135 30.8798 27.8124 31.3037 26.7605 31.6129C24.1286 32.3861 21.4297 32.6069 18.7036 32.455C17.414 32.3833 16.1323 32.1713 14.8471 32.0201C14.7392 32.0074 14.6323 31.9803 14.5279 31.9499C14.1454 31.8388 13.9539 31.5447 14.0248 31.1862C14.0929 30.8435 14.4092 30.6354 14.7958 30.6913C15.6855 30.8205 16.5704 31.0014 17.4646 31.0798C20.6141 31.3565 23.7334 31.2295 26.7678 30.2377C27.1671 30.1073 27.5588 29.9399 27.9311 29.746C29.3086 29.028 29.6007 28.3758 29.3885 26.8414C28.8685 23.0806 25.8339 19.9389 21.7526 19.2933C17.7478 18.6594 14.4302 19.9291 12.0179 23.2348C11.0773 24.5237 10.6347 26.0063 10.5514 27.6029C10.5135 28.3259 10.7776 28.8622 11.3402 29.2845C11.427 29.3499 11.5184 29.4121 11.5941 29.4885C11.8474 29.7441 11.8897 30.0315 11.6842 30.3328C11.4901 30.6174 11.1149 30.708 10.8155 30.5037C9.85737 29.8502 9.20887 29.0173 9.23974 27.7849C9.27092 26.5385 9.51371 25.3424 10.0015 24.1943C10.0375 24.1097 10.0617 24.02 10.1033 23.8984C9.64067 23.9391 9.2092 23.9874 8.77613 24.014C6.89684 24.1292 5.04205 24.0117 3.24104 23.4148C3.07367 23.3592 2.90852 23.2929 2.74878 23.218C1.19788 22.4909 0.754625 21.6119 1.12119 19.9449C1.58863 17.8211 2.87575 16.3562 4.83808 15.445C4.94659 15.3945 5.05732 15.3487 5.21706 15.2783ZM22.7496 8.42406C23.1686 8.75822 23.6055 9.07786 24.0071 9.43635C24.3036 9.70134 24.302 10.0788 24.0609 10.3441C23.8155 10.6141 23.4601 10.634 23.1432 10.3937C23.0891 10.3526 23.041 10.304 22.9901 10.2591C21.5471 8.98848 19.5733 8.73327 17.932 9.60501C16.2685 10.4884 15.3877 12.2644 15.6642 14.1775C15.9636 16.2485 17.869 17.8331 20.0388 17.8161C22.2067 17.799 24.0739 16.1803 24.3507 14.1039C24.4592 13.2894 24.3456 12.5174 24.0593 11.7547C23.9078 11.3513 24.0577 11.0244 24.4153 10.8836C24.7679 10.7446 25.0925 10.8952 25.2707 11.2875C25.3263 11.4104 25.3693 11.5393 25.4126 11.6672C25.6993 12.5133 25.7766 13.381 25.6477 14.3083C26.7923 14.3013 27.8859 14.1876 28.9713 13.8715C28.5001 12.3706 28.775 11.0743 29.8289 9.96318C28.5233 7.80468 24.8436 7.01633 22.7496 8.42406ZM8.06686 22.7771C8.54989 22.7221 9.46821 22.617 10.3865 22.5127C10.7961 22.4663 11.1085 22.3055 11.3564 21.9417C11.6208 21.5535 11.968 21.2171 12.3024 20.8808C12.9417 20.238 12.9506 20.2348 12.5987 19.3723C11.6415 17.0268 8.94573 15.6829 6.37308 16.3123C4.34901 16.8076 2.97184 18.0227 2.43599 20.0637C2.11525 21.2847 2.3434 21.6805 3.52933 22.1325C4.84827 22.635 6.22957 22.7398 8.06686 22.7771ZM10.1702 9.96129C11.2361 11.0769 11.5009 12.3873 11.0325 13.8765C12.1306 14.1772 13.2201 14.3171 14.3523 14.2969C14.1874 13.0727 14.3742 11.9559 14.9088 10.8984C15.4427 9.84158 16.2624 9.05228 17.2969 8.45438C15.0892 7.08802 11.6794 7.68245 10.1702 9.96129ZM16.9052 4.12885C16.9134 2.83893 15.8768 1.7979 14.5855 1.79853C13.3152 1.79916 12.2763 2.82409 12.261 4.09095C12.2458 5.36381 13.3022 6.42159 14.5884 6.42127C15.8628 6.42095 16.8972 5.39729 16.9052 4.12885ZM23.0967 4.1118C23.0973 5.38245 24.1232 6.41243 25.3967 6.42127C26.6835 6.43043 27.7434 5.38498 27.7424 4.10801C27.7415 2.84746 26.7022 1.80801 25.4339 1.79853C24.1429 1.78874 23.0958 2.82472 23.0967 4.1118ZM9.94424 12.549C9.94169 11.2771 8.91581 10.2512 7.64047 10.2452C6.34953 10.2389 5.29343 11.2818 5.29725 12.5591C5.30106 13.8194 6.34253 14.8588 7.60992 14.868C8.89863 14.8774 9.9471 13.8358 9.94424 12.549ZM30.0576 12.5493C30.0561 13.8367 31.1036 14.8774 32.392 14.868C33.6594 14.8588 34.7011 13.8184 34.7046 12.5588C34.7081 11.2825 33.6508 10.2386 32.3605 10.2452C31.0845 10.2515 30.0596 11.2774 30.0576 12.5493ZM10.0674 15.1538C10.0632 15.1977 10.0591 15.2413 10.055 15.2852C12.0329 16.0887 13.3945 17.4674 14.0232 19.443C14.9804 19.0195 15.9032 18.6111 16.8358 18.1983C16.7683 18.1446 16.6878 18.0767 16.6035 18.0138C15.8484 17.4525 15.2524 16.7574 14.8588 15.9065C14.75 15.6709 14.6195 15.6048 14.3685 15.6048C13.0696 15.6052 11.7908 15.4453 10.5367 15.0947C10.397 15.0556 10.2246 15.1314 10.0674 15.1538ZM25.9818 19.4443C26.6138 17.4563 27.9731 16.0897 29.938 15.2233C29.7799 15.1349 29.609 15.0534 29.4731 15.0922C28.2197 15.4498 26.9396 15.6042 25.641 15.6029C25.3626 15.6029 25.2423 15.6983 25.1284 15.9384C24.7332 16.7722 24.1461 17.4582 23.4019 18.011C23.3109 18.0786 23.2265 18.1544 23.1724 18.1989C24.1076 18.6136 25.0244 19.0198 25.9818 19.4443Z" stroke="#0047AB" stroke-width="0.6" mask="url(#path-1-outside-1_559_229)"/>
</svg>
